<svg width="49" height="48" viewBox="0 0 49 48" fill="none" xmlns="http://www.w3.org/2000/svg">
<g clip-path="url(#clip0_211_820)">
<path fill-rule="evenodd" clip-rule="evenodd" d="M14.8191 13.9614L4.83331 23.8468C6.83065 25.8241 9.1123 27.4905 11.6 28.7942C12.2876 30.5998 13.3653 32.2931 14.8333 33.7463C20.3562 39.2136 29.3105 39.2136 34.8333 33.7463C36.3013 32.2931 37.3791 30.5998 38.0667 28.7941C40.5543 27.4905 42.836 25.8241 44.8333 23.8468L34.8556 13.9695C34.8482 13.9621 34.8408 13.9547 34.8333 13.9473C29.3105 8.47997 20.3562 8.47997 14.8333 13.9473C14.8286 13.952 14.8238 13.9567 14.8191 13.9614ZM33.8778 30.5777C30.9678 31.5499 27.913 32.0478 24.8333 32.0478C21.7536 32.0478 18.6989 31.5499 15.7889 30.5777C16.1042 30.9918 16.4523 31.3892 16.8333 31.7664C21.2516 36.1403 28.415 36.1403 32.8333 31.7664C33.2143 31.3892 33.5625 30.9918 33.8778 30.5777ZM17.0384 15.7292C17.7887 16.2199 18.5865 16.6398 19.4213 16.9822C21.1371 17.6857 22.9761 18.0478 24.8333 18.0478C26.6905 18.0478 28.5295 17.6857 30.2453 16.9822C31.0801 16.6398 31.8779 16.2199 32.6283 15.7292C28.2651 11.6193 21.4015 11.6193 17.0384 15.7292Z" fill="#3B4158"/>
</g>
<defs>
<clipPath id="clip0_211_820">
<rect width="40" height="28" fill="white" transform="translate(4.83331 9.8468)"/>
</clipPath>
</defs>
</svg>
