<svg width="49" height="48" viewBox="0 0 49 48" fill="none" xmlns="http://www.w3.org/2000/svg">
<g clip-path="url(#clip0_211_843)">
<path d="M42.7708 11.6905C42.7708 12.1565 43.1531 12.5343 43.6249 12.5343H44.4791C44.9509 12.5343 45.3333 12.1565 45.3333 11.6905C45.3333 11.2246 44.9509 10.8468 44.4791 10.8468H43.6249C43.1531 10.8468 42.7708 11.2246 42.7708 11.6905Z" fill="#212326"/>
<path d="M17.9999 37.8468H22.1493L20.9413 36.6535C20.621 36.3371 20.1864 36.1593 19.7334 36.1593H17.9999C11.3955 36.1593 6.04159 30.8707 6.04159 24.3468C6.04159 17.8229 11.3955 12.5343 17.9999 12.5343H31.6666C38.271 12.5343 43.6249 17.8229 43.6249 24.3468C43.6249 30.8707 38.271 36.1593 31.6666 36.1593H26.5542C25.8745 36.1593 25.2228 35.8926 24.7422 35.4179L23.327 34.02C22.526 33.2288 21.4397 32.7843 20.307 32.7843H17.9999C13.2825 32.7843 9.45825 29.0067 9.45825 24.3468C9.45825 19.6869 13.2825 15.9093 17.9999 15.9093H31.6666C36.384 15.9093 40.2083 19.6869 40.2083 24.3468C40.2083 29.0067 36.384 32.7843 31.6666 32.7843H28.3839C27.7043 32.7843 27.0525 32.5176 26.5719 32.0429L25.1567 30.645C24.3557 29.8538 23.2694 29.4093 22.1368 29.4093H17.9999C15.1695 29.4093 12.8749 27.1427 12.8749 24.3468C12.8749 21.5509 15.1695 19.2843 17.9999 19.2843H31.6666C34.497 19.2843 36.7916 21.5509 36.7916 24.3468C36.7916 27.1086 34.5526 29.354 31.7699 29.4083L31.7694 29.4093H30.5193C29.8397 29.4093 29.1879 29.1426 28.7073 28.6679L27.2921 27.27C26.6349 26.6207 25.7856 26.205 24.8762 26.0767L24.8333 26.0343H17.9999C17.0564 26.0343 16.2916 25.2788 16.2916 24.3468C16.2916 23.4148 17.0564 22.6593 17.9999 22.6593H31.6666C32.6101 22.6593 33.3749 23.4148 33.3749 24.3468C33.3749 25.2788 32.6101 26.0343 31.6666 26.0343H28.2499L29.4579 27.2276C29.7783 27.544 30.2128 27.7218 30.6658 27.7218H31.6666C33.5535 27.7218 35.0833 26.2107 35.0833 24.3468C35.0833 22.4829 33.5535 20.9718 31.6666 20.9718H17.9999C16.113 20.9718 14.5833 22.4829 14.5833 24.3468C14.5833 26.2107 16.113 27.7218 17.9999 27.7218H24.2722C24.9518 27.7218 25.6036 27.9885 26.0842 28.4632L27.4994 29.8611C28.3003 30.6523 29.3866 31.0968 30.5193 31.0968H32.0937V31.0838C35.6687 30.8661 38.4999 27.933 38.4999 24.3468C38.4999 20.6189 35.4405 17.5968 31.6666 17.5968H17.9999C14.226 17.5968 11.1666 20.6189 11.1666 24.3468C11.1666 28.0748 14.226 31.0968 17.9999 31.0968H22.1368C22.8164 31.0968 23.4682 31.3635 23.9487 31.8382L25.364 33.2361C26.1649 34.0273 27.2512 34.4718 28.3839 34.4718H31.6666C37.3275 34.4718 41.9166 29.9387 41.9166 24.3468C41.9166 18.7549 37.3275 14.2218 31.6666 14.2218H17.9999C12.339 14.2218 7.74992 18.7549 7.74992 24.3468C7.74992 29.9387 12.339 34.4718 17.9999 34.4718H20.307C20.9866 34.4718 21.6384 34.7385 22.119 35.2132L23.5342 36.6111C24.3352 37.4023 25.4215 37.8468 26.5542 37.8468H31.6666C39.2145 37.8468 45.3333 31.8027 45.3333 24.3468C45.3333 16.891 39.2145 10.8468 31.6666 10.8468L17.9999 10.8468C10.452 10.8468 4.33325 16.891 4.33325 24.3468C4.33325 31.8027 10.452 37.8468 17.9999 37.8468Z" fill="#212326"/>
</g>
<defs>
<clipPath id="clip0_211_843">
<rect width="41" height="27" fill="white" transform="translate(4.33325 10.8468)"/>
</clipPath>
</defs>
</svg>
