<svg width="56" height="48" viewBox="0 0 56 48" fill="none" xmlns="http://www.w3.org/2000/svg">
<g clip-path="url(#clip0_211_823)">
<path d="M55.6623 19.5165C55.6681 19.4748 55.6681 19.4326 55.6623 19.3909C55.6678 19.3569 55.6678 19.3223 55.6623 19.2882L55.2549 16.3556C55.1961 16.0047 55.0389 15.6768 54.801 15.4085L54.7311 15.3286L54.6031 15.2031L47.5495 9.24648L47.7474 9.44048C47.5855 9.2506 47.3823 9.09872 47.1527 8.99602C46.9231 8.89333 46.6728 8.84244 46.4205 8.8471H44.2788C43.9305 8.84034 43.5902 8.94889 43.3127 9.1552C43.0213 8.95013 42.6704 8.84213 42.3117 8.8471H40.17C39.8891 8.84263 39.612 8.91098 39.3668 9.04523C39.1215 9.17948 38.9168 9.37488 38.7733 9.61164C38.5521 9.94979 38.469 10.3572 38.5405 10.7527L38.8082 12.6013C38.6308 12.5028 38.4301 12.4516 38.2262 12.453H27.8553C27.4832 12.4553 27.1197 12.5622 26.8077 12.7611C26.5061 12.9462 26.2639 13.2113 26.1094 13.5256L25.3062 12.8524C24.9901 12.5656 24.5729 12.4102 24.1423 12.4188H7.87016C7.49675 12.4254 7.13163 12.5277 6.81099 12.7155C6.37232 12.9672 6.05084 13.3764 5.91472 13.8566L0.746743 30.802C0.650181 31.0812 0.640682 31.3824 0.719462 31.6669C0.798242 31.9514 0.961735 32.2065 1.18905 32.3996C1.24828 32.4488 1.31048 32.4945 1.37529 32.5365C1.37529 32.5365 1.27052 32.468 1.21232 32.411L8.26594 38.379C8.56432 38.6483 8.95444 38.7988 9.35999 38.8011H25.7602C26.1348 38.7916 26.5001 38.6853 26.8194 38.493C27 38.3963 27.1616 38.2688 27.2966 38.1165L27.3548 38.0366L27.448 37.9225L27.5178 37.797L28.286 38.4474C28.5801 38.706 28.9618 38.8483 29.3568 38.8468H45.7919C46.1661 38.8346 46.5307 38.7285 46.8511 38.5387C47.0277 38.436 47.1883 38.3092 47.3284 38.1621L47.3865 38.0823L47.4796 37.9682C47.5291 37.896 47.5721 37.8196 47.6077 37.7399C47.6457 37.6707 47.6769 37.5981 47.7008 37.5231L52.4148 22.0497V21.9128C52.4206 21.8597 52.4206 21.8061 52.4148 21.753V21.6504C52.4205 21.6163 52.4205 21.5817 52.4148 21.5476C52.4201 21.4755 52.4201 21.403 52.4148 21.3308H53.928C54.0596 21.3426 54.1921 21.3426 54.3237 21.3308H54.4285C54.5137 21.3059 54.5957 21.2714 54.673 21.2281H54.7894L54.9988 21.0684L55.092 20.9999L55.2549 20.7945V20.7261L55.3713 20.532C55.3648 20.4943 55.3648 20.4557 55.3713 20.418C55.3651 20.3994 55.3651 20.3794 55.3713 20.3609C55.3961 20.294 55.4155 20.2253 55.4295 20.1555C55.4241 20.133 55.4241 20.1095 55.4295 20.087C55.4239 20.053 55.4239 20.0183 55.4295 19.9843C55.4295 19.9843 55.6623 19.5393 55.6623 19.5165Z" fill="black"/>
<path d="M24.6195 13.7197C24.6813 13.7745 24.7245 13.8465 24.7432 13.9261C24.762 14.0057 24.7553 14.089 24.7243 14.1647L19.568 31.0988C19.503 31.2836 19.3702 31.4382 19.1955 31.5324C19.0533 31.6256 18.8888 31.6807 18.7182 31.6922H2.32973C2.18977 31.6856 2.05717 31.6287 1.95726 31.5324C1.89782 31.4785 1.8561 31.4084 1.83744 31.3313C1.81878 31.254 1.82403 31.1731 1.8525 31.0988L7.02048 14.1647C7.08002 13.9775 7.20869 13.8188 7.3813 13.7197C7.52581 13.6332 7.68956 13.5823 7.85853 13.5714H24.247C24.3859 13.5727 24.519 13.6257 24.6195 13.7197ZM16.0644 27.6869L19.1489 17.5766H10.5124L7.43949 27.6869H16.0644ZM40.2631 13.8909C40.319 13.9546 40.3889 14.0051 40.4675 14.0387C40.5461 14.0723 40.6314 14.088 40.7171 14.0849H42.8471C42.9282 14.0856 43.0081 14.0661 43.0795 14.0282C43.1508 13.9903 43.2109 13.9351 43.2545 13.868C43.2923 13.8156 43.319 13.7563 43.333 13.6936C43.347 13.6308 43.348 13.566 43.3359 13.5029L42.9169 10.4904C42.8771 10.3509 42.8054 10.2222 42.7075 10.1138C42.6515 10.0501 42.5817 9.99958 42.5031 9.966C42.4244 9.93241 42.3391 9.91663 42.2535 9.91982H40.1235C40.0423 9.91905 39.9624 9.93855 39.8911 9.97648C39.8198 10.0144 39.7595 10.0695 39.7161 10.1366C39.6346 10.2964 39.5997 10.3991 39.6346 10.4904L40.0653 13.5029C40.0873 13.6496 40.1567 13.7855 40.2631 13.8909ZM47.0257 10.4676C46.9858 10.3281 46.9141 10.1994 46.8162 10.091C46.7626 10.0275 46.6948 9.97701 46.6181 9.94336C46.5414 9.90972 46.4579 9.89385 46.3739 9.897H44.2322C44.1524 9.89477 44.0735 9.91374 44.0039 9.95191C43.9342 9.99008 43.8764 10.046 43.8365 10.1138C43.759 10.215 43.7255 10.3422 43.7434 10.4676L44.174 13.4801C44.201 13.6252 44.2696 13.7598 44.3719 13.868C44.4288 13.9305 44.4989 13.9802 44.5772 14.0137C44.6556 14.0471 44.7403 14.0636 44.8258 14.062H46.9675C47.0471 14.0631 47.1255 14.0436 47.1949 14.0055C47.2644 13.9675 47.3225 13.9122 47.3633 13.8452C47.4038 13.7942 47.432 13.7349 47.4462 13.6717C47.4603 13.6085 47.4598 13.543 47.4447 13.4801L47.0257 10.4676ZM38.3891 15.032L38.1796 13.5485H27.8553C27.6932 13.5573 27.5364 13.6085 27.4013 13.6969C27.3156 13.7427 27.241 13.8062 27.1827 13.8831C27.1245 13.9599 27.084 14.0482 27.0639 14.1419L26.2025 16.9718C26.1681 17.0426 26.1564 17.1219 26.1688 17.1993C26.1813 17.2767 26.2174 17.3486 26.2723 17.4055C26.3705 17.4959 26.4986 17.5487 26.6332 17.5538H39.1807L36.0962 27.6641H23.5836C23.4223 27.6677 23.2651 27.7151 23.1297 27.8009C22.9651 27.9035 22.8448 28.0619 22.7921 28.246L21.9191 31.076C21.8907 31.1486 21.8832 31.2275 21.8975 31.304C21.912 31.3805 21.9476 31.4516 22.0006 31.5095C22.0957 31.6061 22.2248 31.6632 22.3614 31.6693H38.7965C38.9665 31.655 39.1303 31.6001 39.2737 31.5095C39.4456 31.4149 39.5745 31.26 39.6346 31.076L44.3602 15.6025H39.041C38.9565 15.6042 38.8727 15.5888 38.7947 15.5574C38.7166 15.526 38.6459 15.4792 38.5871 15.4199C38.4908 15.3165 38.4227 15.1909 38.3891 15.0548V15.032Z" fill="white"/>
</g>
<defs>
<clipPath id="clip0_211_823">
<rect width="55" height="30" fill="white" transform="translate(0.666626 8.8468)"/>
</clipPath>
</defs>
</svg>
