<svg width="53" height="48" viewBox="0 0 53 48" fill="none" xmlns="http://www.w3.org/2000/svg">
<g clip-path="url(#clip0_211_847)">
<path d="M12.5098 13.8468C10.479 13.8468 8.53149 14.6535 7.09556 16.0894L2.40927 20.7757C0.973326 22.2117 0.166626 24.1592 0.166626 26.1899C0.166626 30.4187 3.59472 33.8468 7.82349 33.8468C9.85423 33.8468 11.8018 33.0401 13.2377 31.6041L16.4792 28.3626C16.4792 28.3625 16.4793 28.3627 16.4792 28.3626L25.924 18.9179C26.6098 18.2321 27.5399 17.8468 28.5098 17.8468C30.1335 17.8468 31.5101 18.9051 31.9874 20.3695L34.9681 17.3888C33.6083 15.259 31.224 13.8468 28.5098 13.8468C26.479 13.8468 24.5315 14.6535 23.0956 16.0894L10.4093 28.7757C9.72349 29.4615 8.79336 29.8468 7.82349 29.8468C5.80385 29.8468 4.16663 28.2096 4.16663 26.1899C4.16663 25.2201 4.5519 24.2899 5.23769 23.6041L9.92396 18.9179C10.6098 18.2321 11.5399 17.8468 12.5098 17.8468C14.1336 17.8468 15.5101 18.9051 15.9874 20.3696L18.9682 17.3888C17.6084 15.2591 15.224 13.8468 12.5098 13.8468Z" fill="#394149"/>
<path d="M26.4093 28.7757C25.7235 29.4615 24.7934 29.8468 23.8235 29.8468C22.2 29.8468 20.8235 28.7888 20.3461 27.3246L17.3655 30.3053C18.7253 32.4347 21.1095 33.8468 23.8235 33.8468C25.8543 33.8468 27.8018 33.0401 29.2377 31.6041L41.924 18.9179C42.6098 18.2321 43.5399 17.8468 44.5098 17.8468C46.5295 17.8468 48.1667 19.484 48.1667 21.5037C48.1667 22.4735 47.7814 23.4037 47.0956 24.0895L42.4093 28.7757C41.7235 29.4615 40.7934 29.8468 39.8235 29.8468C38.1999 29.8468 36.8233 28.7886 36.346 27.3243L33.3653 30.305C34.7251 32.4347 37.1094 33.8468 39.8235 33.8468C41.8543 33.8468 43.8018 33.0401 45.2377 31.6041L49.924 26.9179C51.3599 25.4819 52.1667 23.5344 52.1667 21.5037C52.1667 17.2749 48.7386 13.8468 44.5098 13.8468C42.4791 13.8468 40.5315 14.6535 39.0956 16.0894L26.4093 28.7757Z" fill="#394149"/>
</g>
<defs>
<clipPath id="clip0_211_847">
<rect width="52" height="20" fill="white" transform="translate(0.166626 13.8468)"/>
</clipPath>
</defs>
</svg>
