<svg width="268" height="144" viewBox="0 0 268 144" fill="none" xmlns="http://www.w3.org/2000/svg">
<path d="M166.5 38C166.5 47.9411 158.441 56 148.5 56L121.5 56C118.739 56 116.5 53.7614 116.5 51L116.5 17C116.5 11.4772 120.977 7 126.5 7L161.5 7C164.261 7 166.5 9.23858 166.5 12L166.5 38Z" fill="#E8F5E9"/>
<path d="M128.416 19.0109C128.104 19.0109 127.851 18.7576 127.851 18.4452V17.4839C127.851 17.1719 128.104 16.9182 128.416 16.9182C128.728 16.9182 128.982 17.1715 128.982 17.4839V18.4452C128.982 18.7576 128.728 19.0109 128.416 19.0109Z" fill="#103E13"/>
<path d="M126.038 19.0109C125.726 19.0109 125.472 18.7576 125.472 18.4452V17.4839C125.472 17.1719 125.726 16.9182 126.038 16.9182C126.35 16.9182 126.604 17.1715 126.604 17.4839V18.4452C126.603 18.7576 126.351 19.0109 126.038 19.0109Z" fill="#103E13"/>
<path d="M123.66 19.0109C123.348 19.0109 123.094 18.7576 123.094 18.4452V17.4839C123.094 17.1719 123.348 16.9182 123.66 16.9182C123.972 16.9182 124.226 17.1715 124.226 17.4839V18.4452C124.226 18.7576 123.972 19.0109 123.66 19.0109Z" fill="#103E13"/>
<path d="M128.416 22.942C128.104 22.942 127.851 22.6888 127.851 22.3763V21.4154C127.851 21.1034 128.104 20.8497 128.416 20.8497C128.728 20.8497 128.982 21.103 128.982 21.4154V22.3763C128.982 22.6888 128.728 22.942 128.416 22.942Z" fill="#103E13"/>
<path d="M126.038 22.942C125.726 22.942 125.472 22.6888 125.472 22.3763V21.4154C125.472 21.1034 125.726 20.8497 126.038 20.8497C126.35 20.8497 126.604 21.103 126.604 21.4154V22.3763C126.603 22.6888 126.351 22.942 126.038 22.942Z" fill="#103E13"/>
<path d="M123.66 22.942C123.348 22.942 123.094 22.6888 123.094 22.3763V21.4154C123.094 21.1034 123.348 20.8497 123.66 20.8497C123.972 20.8497 124.226 21.103 124.226 21.4154V22.3763C124.226 22.6888 123.972 22.942 123.66 22.942Z" fill="#103E13"/>
<path d="M128.416 26.8733C128.104 26.8733 127.851 26.6201 127.851 26.3076V25.3463C127.851 25.0343 128.104 24.7806 128.416 24.7806C128.728 24.7806 128.982 25.0339 128.982 25.3463V26.3076C128.982 26.6201 128.728 26.8733 128.416 26.8733Z" fill="#103E13"/>
<path d="M126.038 26.8733C125.726 26.8733 125.472 26.6201 125.472 26.3076V25.3463C125.472 25.0343 125.726 24.7806 126.038 24.7806C126.35 24.7806 126.604 25.0339 126.604 25.3463V26.3076C126.603 26.6201 126.351 26.8733 126.038 26.8733Z" fill="#103E13"/>
<path d="M123.66 26.8733C123.348 26.8733 123.094 26.6201 123.094 26.3076V25.3463C123.094 25.0343 123.348 24.7806 123.66 24.7806C123.972 24.7806 124.226 25.0339 124.226 25.3463V26.3076C124.226 26.6201 123.972 26.8733 123.66 26.8733Z" fill="#103E13"/>
<path d="M128.416 30.8037C128.104 30.8037 127.851 30.5505 127.851 30.2381V29.2767C127.851 28.9647 128.104 28.7111 128.416 28.7111C128.728 28.7111 128.982 28.9643 128.982 29.2767V30.2381C128.982 30.5505 128.728 30.8037 128.416 30.8037Z" fill="#103E13"/>
<path d="M126.038 30.8037C125.726 30.8037 125.472 30.5505 125.472 30.2381V29.2767C125.472 28.9647 125.726 28.7111 126.038 28.7111C126.35 28.7111 126.604 28.9643 126.604 29.2767V30.2381C126.603 30.5505 126.351 30.8037 126.038 30.8037Z" fill="#103E13"/>
<path d="M123.66 30.8037C123.348 30.8037 123.094 30.5505 123.094 30.2381V29.2767C123.094 28.9647 123.348 28.7111 123.66 28.7111C123.972 28.7111 124.226 28.9643 124.226 29.2767V30.2381C124.226 30.5505 123.972 30.8037 123.66 30.8037Z" fill="#103E13"/>
<path d="M128.416 34.735C128.104 34.735 127.851 34.4817 127.851 34.1693V33.2084C127.851 32.8964 128.104 32.6427 128.416 32.6427C128.728 32.6427 128.982 32.896 128.982 33.2084V34.1693C128.982 34.4813 128.728 34.735 128.416 34.735Z" fill="#103E13"/>
<path d="M126.038 34.735C125.726 34.735 125.472 34.4817 125.472 34.1693V33.2084C125.472 32.8964 125.726 32.6427 126.038 32.6427C126.35 32.6427 126.604 32.896 126.604 33.2084V34.1693C126.603 34.4813 126.351 34.735 126.038 34.735Z" fill="#103E13"/>
<path d="M123.66 34.735C123.348 34.735 123.094 34.4817 123.094 34.1693L123.095 33.2084C123.095 32.8964 123.348 32.6427 123.66 32.6427C123.972 32.6427 124.226 32.896 124.226 33.2084V34.1693C124.226 34.4813 123.972 34.735 123.66 34.735Z" fill="#103E13"/>
<path d="M107.5 38.6471C107.5 38.9592 107.754 39.2128 108.066 39.2128H142.514C142.826 39.2128 143.08 38.9596 143.08 38.6471C143.08 38.3351 142.826 38.0815 142.514 38.0815H141.468V21.8402C141.468 21.5281 141.215 21.2745 140.903 21.2745L131.667 21.2749V9.56576C131.667 9.36774 131.563 9.18471 131.395 9.08214C131.226 8.97919 131.016 8.97287 130.84 9.06399L120.34 14.531C120.153 14.6284 120.036 14.8217 120.036 15.0327V25.2604H109.874C109.562 25.2604 109.308 25.5137 109.308 25.8261V38.0816H108.065C107.753 38.0812 107.5 38.3344 107.5 38.6468L107.5 38.6471ZM131.667 29.8422H140.337V38.0819L131.667 38.0815V29.8422ZM131.667 25.9113H140.337V28.7113L131.667 28.7109V25.9113ZM131.667 22.4056H140.337V24.7808H131.667V22.4056ZM121.167 15.3762L130.535 10.4982V38.081H121.167V15.3762ZM113.236 33.5635C113.236 32.3895 114.166 31.4341 115.31 31.4341C116.453 31.4341 117.384 32.3891 117.384 33.5635V38.0817H113.236V33.5635ZM110.44 26.3916H120.036V38.0815H118.515V33.5633C118.515 31.7657 117.078 30.303 115.31 30.303C113.542 30.303 112.105 31.7653 112.105 33.5633V38.0815H110.44V26.3916Z" fill="#103E13"/>
<path d="M95.9002 79.6364V100H92.1815L83.3221 87.1832H83.1729V100H78.8675V79.6364H82.646L91.4357 92.4432H91.6147V79.6364H95.9002ZM103.733 100.288C102.759 100.288 101.89 100.119 101.128 99.7812C100.366 99.4366 99.7623 98.9295 99.3182 98.2599C98.8807 97.5838 98.6619 96.742 98.6619 95.7344C98.6619 94.8859 98.8177 94.1733 99.1293 93.5966C99.4408 93.0199 99.8651 92.5559 100.402 92.2045C100.939 91.8532 101.549 91.5881 102.232 91.4091C102.921 91.2301 103.643 91.1042 104.399 91.0312C105.287 90.9384 106.003 90.8523 106.547 90.7727C107.09 90.6866 107.485 90.5606 107.73 90.3949C107.975 90.2292 108.098 89.9839 108.098 89.6591V89.5994C108.098 88.9697 107.899 88.4825 107.501 88.1378C107.11 87.7931 106.554 87.6207 105.831 87.6207C105.069 87.6207 104.462 87.7898 104.011 88.1278C103.561 88.4593 103.262 88.8769 103.116 89.3807L99.1989 89.0625C99.3977 88.1345 99.7888 87.3324 100.372 86.6562C100.955 85.9735 101.708 85.4498 102.629 85.0852C103.557 84.714 104.631 84.5284 105.851 84.5284C106.699 84.5284 107.511 84.6278 108.287 84.8267C109.069 85.0256 109.762 85.3338 110.365 85.7514C110.975 86.169 111.455 86.706 111.807 87.3622C112.158 88.0118 112.334 88.7907 112.334 89.6989V100H108.317V97.8821H108.197C107.952 98.3594 107.624 98.7803 107.213 99.1449C106.802 99.5028 106.308 99.7846 105.732 99.9901C105.155 100.189 104.489 100.288 103.733 100.288ZM104.946 97.3651C105.569 97.3651 106.119 97.2424 106.597 96.9972C107.074 96.7453 107.448 96.4072 107.72 95.983C107.992 95.5587 108.128 95.0781 108.128 94.5412V92.9205C107.995 93.0066 107.813 93.0862 107.581 93.1591C107.356 93.2254 107.1 93.2884 106.815 93.348C106.53 93.401 106.245 93.4508 105.96 93.4972C105.675 93.5369 105.417 93.5734 105.185 93.6065C104.688 93.6795 104.253 93.7955 103.882 93.9545C103.511 94.1136 103.223 94.3291 103.017 94.6009C102.812 94.866 102.709 95.1974 102.709 95.5952C102.709 96.1719 102.918 96.6127 103.335 96.9176C103.759 97.2159 104.296 97.3651 104.946 97.3651ZM123.744 84.7273V87.9091H114.546V84.7273H123.744ZM116.634 81.0682H120.87V95.3068C120.87 95.6979 120.93 96.0028 121.049 96.2216C121.168 96.4337 121.334 96.5829 121.546 96.669C121.765 96.7552 122.017 96.7983 122.302 96.7983C122.501 96.7983 122.7 96.7817 122.898 96.7486C123.097 96.7088 123.25 96.679 123.356 96.6591L124.022 99.8111C123.81 99.8774 123.512 99.9536 123.127 100.04C122.743 100.133 122.275 100.189 121.725 100.209C120.704 100.249 119.809 100.113 119.04 99.8011C118.278 99.4896 117.685 99.0057 117.261 98.3494C116.836 97.6932 116.628 96.8646 116.634 95.8636V81.0682ZM126.503 100V84.7273H130.739V100H126.503ZM128.631 82.7585C128.001 82.7585 127.461 82.5497 127.01 82.1321C126.566 81.7079 126.344 81.2008 126.344 80.6108C126.344 80.0275 126.566 79.527 127.01 79.1094C127.461 78.6851 128.001 78.473 128.631 78.473C129.26 78.473 129.797 78.6851 130.241 79.1094C130.692 79.527 130.918 80.0275 130.918 80.6108C130.918 81.2008 130.692 81.7079 130.241 82.1321C129.797 82.5497 129.26 82.7585 128.631 82.7585ZM141.032 100.298C139.488 100.298 138.152 99.9702 137.025 99.3139C135.905 98.651 135.04 97.7296 134.43 96.5497C133.82 95.3632 133.515 93.9877 133.515 92.4233C133.515 90.8456 133.82 89.4669 134.43 88.2869C135.04 87.1004 135.905 86.179 137.025 85.5227C138.152 84.8598 139.488 84.5284 141.032 84.5284C142.577 84.5284 143.909 84.8598 145.029 85.5227C146.156 86.179 147.025 87.1004 147.635 88.2869C148.244 89.4669 148.549 90.8456 148.549 92.4233C148.549 93.9877 148.244 95.3632 147.635 96.5497C147.025 97.7296 146.156 98.651 145.029 99.3139C143.909 99.9702 142.577 100.298 141.032 100.298ZM141.052 97.017C141.755 97.017 142.342 96.8182 142.812 96.4205C143.283 96.0161 143.637 95.4659 143.876 94.7699C144.121 94.0739 144.244 93.2817 144.244 92.3935C144.244 91.5052 144.121 90.7131 143.876 90.017C143.637 89.321 143.283 88.7708 142.812 88.3665C142.342 87.9621 141.755 87.7599 141.052 87.7599C140.343 87.7599 139.746 87.9621 139.262 88.3665C138.785 88.7708 138.424 89.321 138.179 90.017C137.94 90.7131 137.821 91.5052 137.821 92.3935C137.821 93.2817 137.94 94.0739 138.179 94.7699C138.424 95.4659 138.785 96.0161 139.262 96.4205C139.746 96.8182 140.343 97.017 141.052 97.017ZM155.539 91.1705V100H151.304V84.7273H155.341V87.4219H155.52C155.858 86.5336 156.424 85.831 157.22 85.3139C158.015 84.7902 158.98 84.5284 160.113 84.5284C161.174 84.5284 162.099 84.7604 162.887 85.2244C163.676 85.6884 164.289 86.3513 164.727 87.2131C165.164 88.0682 165.383 89.089 165.383 90.2756V100H161.147V91.0312C161.154 90.0966 160.915 89.3674 160.431 88.8438C159.948 88.3134 159.281 88.0483 158.433 88.0483C157.863 88.0483 157.359 88.1709 156.922 88.4162C156.491 88.6615 156.153 89.0194 155.907 89.4901C155.669 89.9541 155.546 90.5142 155.539 91.1705ZM173.077 100.288C172.102 100.288 171.234 100.119 170.472 99.7812C169.709 99.4366 169.106 98.9295 168.662 98.2599C168.224 97.5838 168.006 96.742 168.006 95.7344C168.006 94.8859 168.161 94.1733 168.473 93.5966C168.785 93.0199 169.209 92.5559 169.746 92.2045C170.283 91.8532 170.893 91.5881 171.575 91.4091C172.265 91.2301 172.987 91.1042 173.743 91.0312C174.631 90.9384 175.347 90.8523 175.891 90.7727C176.434 90.6866 176.829 90.5606 177.074 90.3949C177.319 90.2292 177.442 89.9839 177.442 89.6591V89.5994C177.442 88.9697 177.243 88.4825 176.845 88.1378C176.454 87.7931 175.897 87.6207 175.175 87.6207C174.412 87.6207 173.806 87.7898 173.355 88.1278C172.904 88.4593 172.606 88.8769 172.46 89.3807L168.543 89.0625C168.741 88.1345 169.133 87.3324 169.716 86.6562C170.299 85.9735 171.052 85.4498 171.973 85.0852C172.901 84.714 173.975 84.5284 175.195 84.5284C176.043 84.5284 176.855 84.6278 177.631 84.8267C178.413 85.0256 179.106 85.3338 179.709 85.7514C180.319 86.169 180.799 86.706 181.151 87.3622C181.502 88.0118 181.678 88.7907 181.678 89.6989V100H177.661V97.8821H177.541C177.296 98.3594 176.968 98.7803 176.557 99.1449C176.146 99.5028 175.652 99.7846 175.075 99.9901C174.499 100.189 173.832 100.288 173.077 100.288ZM174.29 97.3651C174.913 97.3651 175.463 97.2424 175.94 96.9972C176.418 96.7453 176.792 96.4072 177.064 95.983C177.336 95.5587 177.472 95.0781 177.472 94.5412V92.9205C177.339 93.0066 177.157 93.0862 176.925 93.1591C176.699 93.2254 176.444 93.2884 176.159 93.348C175.874 93.401 175.589 93.4508 175.304 93.4972C175.019 93.5369 174.76 93.5734 174.528 93.6065C174.031 93.6795 173.597 93.7955 173.226 93.9545C172.855 94.1136 172.566 94.3291 172.361 94.6009C172.155 94.866 172.053 95.1974 172.053 95.5952C172.053 96.1719 172.261 96.6127 172.679 96.9176C173.103 97.2159 173.64 97.3651 174.29 97.3651ZM189.2 79.6364V100H184.964V79.6364H189.2ZM50.1119 136H45.4982L52.5281 115.636H58.0763L65.0962 136H60.4826L55.3817 120.29H55.2227L50.1119 136ZM49.8235 127.996H60.7212V131.357H49.8235V127.996ZM79.8196 125.082L75.9418 125.321C75.8755 124.99 75.733 124.691 75.5142 124.426C75.2955 124.154 75.0071 123.939 74.6491 123.78C74.2978 123.614 73.8769 123.531 73.3864 123.531C72.7301 123.531 72.1766 123.67 71.7259 123.949C71.2751 124.221 71.0497 124.585 71.0497 125.043C71.0497 125.407 71.1955 125.715 71.4872 125.967C71.7789 126.219 72.2794 126.421 72.9886 126.574L75.7528 127.131C77.2377 127.436 78.3447 127.926 79.0739 128.602C79.803 129.278 80.1676 130.167 80.1676 131.267C80.1676 132.268 79.8726 133.146 79.2827 133.902C78.6993 134.658 77.8973 135.248 76.8764 135.672C75.8622 136.089 74.6922 136.298 73.3665 136.298C71.3447 136.298 69.7339 135.877 68.5341 135.036C67.3409 134.187 66.6416 133.034 66.4361 131.575L70.6023 131.357C70.7282 131.973 71.0331 132.444 71.517 132.768C72.0009 133.087 72.6207 133.246 73.3764 133.246C74.1188 133.246 74.7154 133.103 75.1662 132.818C75.6236 132.527 75.8556 132.152 75.8622 131.695C75.8556 131.31 75.6932 130.995 75.375 130.75C75.0568 130.498 74.5663 130.306 73.9034 130.173L71.2585 129.646C69.767 129.348 68.6567 128.831 67.9276 128.095C67.205 127.359 66.8438 126.421 66.8438 125.281C66.8438 124.3 67.1089 123.455 67.6392 122.746C68.1761 122.036 68.9285 121.49 69.8963 121.105C70.8707 120.721 72.0109 120.528 73.3168 120.528C75.2457 120.528 76.7637 120.936 77.8707 121.751C78.9844 122.567 79.634 123.677 79.8196 125.082ZM95.5423 125.082L91.6644 125.321C91.5981 124.99 91.4556 124.691 91.2369 124.426C91.0181 124.154 90.7298 123.939 90.3718 123.78C90.0205 123.614 89.5996 123.531 89.109 123.531C88.4528 123.531 87.8993 123.67 87.4485 123.949C86.9978 124.221 86.7724 124.585 86.7724 125.043C86.7724 125.407 86.9182 125.715 87.2099 125.967C87.5015 126.219 88.002 126.421 88.7113 126.574L91.4755 127.131C92.9603 127.436 94.0674 127.926 94.7965 128.602C95.5257 129.278 95.8903 130.167 95.8903 131.267C95.8903 132.268 95.5953 133.146 95.0053 133.902C94.422 134.658 93.6199 135.248 92.5991 135.672C91.5849 136.089 90.4149 136.298 89.0891 136.298C87.0674 136.298 85.4566 135.877 84.2567 135.036C83.0636 134.187 82.3642 133.034 82.1587 131.575L86.3249 131.357C86.4509 131.973 86.7558 132.444 87.2397 132.768C87.7236 133.087 88.3434 133.246 89.0991 133.246C89.8415 133.246 90.4381 133.103 90.8888 132.818C91.3462 132.527 91.5782 132.152 91.5849 131.695C91.5782 131.31 91.4158 130.995 91.0977 130.75C90.7795 130.498 90.2889 130.306 89.6261 130.173L86.9812 129.646C85.4897 129.348 84.3794 128.831 83.6502 128.095C82.9277 127.359 82.5664 126.421 82.5664 125.281C82.5664 124.3 82.8316 123.455 83.3619 122.746C83.8988 122.036 84.6512 121.49 85.619 121.105C86.5934 120.721 87.7335 120.528 89.0394 120.528C90.9684 120.528 92.4864 120.936 93.5934 121.751C94.707 122.567 95.3567 123.677 95.5423 125.082ZM105.458 136.298C103.914 136.298 102.578 135.97 101.451 135.314C100.331 134.651 99.4657 133.73 98.8558 132.55C98.246 131.363 97.9411 129.988 97.9411 128.423C97.9411 126.846 98.246 125.467 98.8558 124.287C99.4657 123.1 100.331 122.179 101.451 121.523C102.578 120.86 103.914 120.528 105.458 120.528C107.003 120.528 108.335 120.86 109.455 121.523C110.582 122.179 111.451 123.1 112.06 124.287C112.67 125.467 112.975 126.846 112.975 128.423C112.975 129.988 112.67 131.363 112.06 132.55C111.451 133.73 110.582 134.651 109.455 135.314C108.335 135.97 107.003 136.298 105.458 136.298ZM105.478 133.017C106.181 133.017 106.767 132.818 107.238 132.42C107.709 132.016 108.063 131.466 108.302 130.77C108.547 130.074 108.67 129.282 108.67 128.393C108.67 127.505 108.547 126.713 108.302 126.017C108.063 125.321 107.709 124.771 107.238 124.366C106.767 123.962 106.181 123.76 105.478 123.76C104.769 123.76 104.172 123.962 103.688 124.366C103.211 124.771 102.85 125.321 102.604 126.017C102.366 126.713 102.246 127.505 102.246 128.393C102.246 129.282 102.366 130.074 102.604 130.77C102.85 131.466 103.211 132.016 103.688 132.42C104.172 132.818 104.769 133.017 105.478 133.017ZM122.63 136.298C121.066 136.298 119.72 135.967 118.593 135.304C117.473 134.634 116.611 133.706 116.008 132.52C115.411 131.333 115.113 129.968 115.113 128.423C115.113 126.859 115.415 125.487 116.018 124.307C116.628 123.12 117.493 122.196 118.613 121.533C119.733 120.863 121.066 120.528 122.61 120.528C123.942 120.528 125.109 120.77 126.11 121.254C127.111 121.738 127.903 122.418 128.487 123.293C129.07 124.168 129.391 125.195 129.451 126.375H125.454C125.341 125.613 125.043 125 124.559 124.536C124.082 124.065 123.455 123.83 122.68 123.83C122.023 123.83 121.45 124.009 120.96 124.366C120.476 124.718 120.098 125.232 119.826 125.908C119.554 126.584 119.418 127.402 119.418 128.364C119.418 129.338 119.551 130.167 119.816 130.849C120.088 131.532 120.469 132.053 120.96 132.411C121.45 132.768 122.023 132.947 122.68 132.947C123.164 132.947 123.598 132.848 123.982 132.649C124.373 132.45 124.695 132.162 124.947 131.784C125.205 131.4 125.374 130.939 125.454 130.402H129.451C129.385 131.569 129.067 132.596 128.496 133.484C127.933 134.366 127.154 135.055 126.16 135.553C125.165 136.05 123.989 136.298 122.63 136.298ZM132.163 136V120.727H136.399V136H132.163ZM134.291 118.759C133.661 118.759 133.121 118.55 132.67 118.132C132.226 117.708 132.004 117.201 132.004 116.611C132.004 116.027 132.226 115.527 132.67 115.109C133.121 114.685 133.661 114.473 134.291 114.473C134.921 114.473 135.458 114.685 135.902 115.109C136.352 115.527 136.578 116.027 136.578 116.611C136.578 117.201 136.352 117.708 135.902 118.132C135.458 118.55 134.921 118.759 134.291 118.759ZM144.147 136.288C143.173 136.288 142.304 136.119 141.542 135.781C140.78 135.437 140.176 134.929 139.732 134.26C139.295 133.584 139.076 132.742 139.076 131.734C139.076 130.886 139.232 130.173 139.543 129.597C139.855 129.02 140.279 128.556 140.816 128.205C141.353 127.853 141.963 127.588 142.646 127.409C143.335 127.23 144.058 127.104 144.813 127.031C145.701 126.938 146.417 126.852 146.961 126.773C147.504 126.687 147.899 126.561 148.144 126.395C148.389 126.229 148.512 125.984 148.512 125.659V125.599C148.512 124.97 148.313 124.482 147.915 124.138C147.524 123.793 146.968 123.621 146.245 123.621C145.483 123.621 144.876 123.79 144.425 124.128C143.975 124.459 143.676 124.877 143.531 125.381L139.613 125.062C139.812 124.134 140.203 123.332 140.786 122.656C141.37 121.973 142.122 121.45 143.043 121.085C143.971 120.714 145.045 120.528 146.265 120.528C147.113 120.528 147.925 120.628 148.701 120.827C149.483 121.026 150.176 121.334 150.779 121.751C151.389 122.169 151.87 122.706 152.221 123.362C152.572 124.012 152.748 124.791 152.748 125.699V136H148.731V133.882H148.612C148.366 134.359 148.038 134.78 147.627 135.145C147.216 135.503 146.722 135.785 146.146 135.99C145.569 136.189 144.903 136.288 144.147 136.288ZM145.36 133.365C145.983 133.365 146.533 133.242 147.011 132.997C147.488 132.745 147.862 132.407 148.134 131.983C148.406 131.559 148.542 131.078 148.542 130.541V128.92C148.409 129.007 148.227 129.086 147.995 129.159C147.77 129.225 147.514 129.288 147.229 129.348C146.944 129.401 146.659 129.451 146.374 129.497C146.089 129.537 145.831 129.573 145.599 129.607C145.102 129.679 144.667 129.795 144.296 129.955C143.925 130.114 143.637 130.329 143.431 130.601C143.226 130.866 143.123 131.197 143.123 131.595C143.123 132.172 143.332 132.613 143.749 132.918C144.174 133.216 144.71 133.365 145.36 133.365ZM164.158 120.727V123.909H154.96V120.727H164.158ZM157.048 117.068H161.284V131.307C161.284 131.698 161.344 132.003 161.463 132.222C161.582 132.434 161.748 132.583 161.96 132.669C162.179 132.755 162.431 132.798 162.716 132.798C162.915 132.798 163.114 132.782 163.312 132.749C163.511 132.709 163.664 132.679 163.77 132.659L164.436 135.811C164.224 135.877 163.926 135.954 163.541 136.04C163.157 136.133 162.689 136.189 162.139 136.209C161.118 136.249 160.223 136.113 159.455 135.801C158.692 135.49 158.099 135.006 157.675 134.349C157.25 133.693 157.042 132.865 157.048 131.864V117.068ZM166.917 136V120.727H171.153V136H166.917ZM169.045 118.759C168.415 118.759 167.875 118.55 167.424 118.132C166.98 117.708 166.758 117.201 166.758 116.611C166.758 116.027 166.98 115.527 167.424 115.109C167.875 114.685 168.415 114.473 169.045 114.473C169.674 114.473 170.211 114.685 170.656 115.109C171.106 115.527 171.332 116.027 171.332 116.611C171.332 117.201 171.106 117.708 170.656 118.132C170.211 118.55 169.674 118.759 169.045 118.759ZM181.446 136.298C179.902 136.298 178.566 135.97 177.439 135.314C176.319 134.651 175.454 133.73 174.844 132.55C174.234 131.363 173.929 129.988 173.929 128.423C173.929 126.846 174.234 125.467 174.844 124.287C175.454 123.1 176.319 122.179 177.439 121.523C178.566 120.86 179.902 120.528 181.446 120.528C182.991 120.528 184.323 120.86 185.444 121.523C186.57 122.179 187.439 123.1 188.049 124.287C188.658 125.467 188.963 126.846 188.963 128.423C188.963 129.988 188.658 131.363 188.049 132.55C187.439 133.73 186.57 134.651 185.444 135.314C184.323 135.97 182.991 136.298 181.446 136.298ZM181.466 133.017C182.169 133.017 182.756 132.818 183.226 132.42C183.697 132.016 184.051 131.466 184.29 130.77C184.535 130.074 184.658 129.282 184.658 128.393C184.658 127.505 184.535 126.713 184.29 126.017C184.051 125.321 183.697 124.771 183.226 124.366C182.756 123.962 182.169 123.76 181.466 123.76C180.757 123.76 180.16 123.962 179.676 124.366C179.199 124.771 178.838 125.321 178.593 126.017C178.354 126.713 178.235 127.505 178.235 128.393C178.235 129.282 178.354 130.074 178.593 130.77C178.838 131.466 179.199 132.016 179.676 132.42C180.16 132.818 180.757 133.017 181.466 133.017ZM195.953 127.17V136H191.718V120.727H195.755V123.422H195.934C196.272 122.534 196.838 121.831 197.634 121.314C198.429 120.79 199.394 120.528 200.527 120.528C201.588 120.528 202.513 120.76 203.301 121.224C204.09 121.688 204.703 122.351 205.141 123.213C205.578 124.068 205.797 125.089 205.797 126.276V136H201.561V127.031C201.568 126.097 201.329 125.367 200.846 124.844C200.362 124.313 199.695 124.048 198.847 124.048C198.277 124.048 197.773 124.171 197.336 124.416C196.905 124.661 196.567 125.019 196.321 125.49C196.083 125.954 195.96 126.514 195.953 127.17ZM221.843 125.082L217.965 125.321C217.899 124.99 217.756 124.691 217.538 124.426C217.319 124.154 217.031 123.939 216.673 123.78C216.321 123.614 215.9 123.531 215.41 123.531C214.754 123.531 214.2 123.67 213.749 123.949C213.299 124.221 213.073 124.585 213.073 125.043C213.073 125.407 213.219 125.715 213.511 125.967C213.802 126.219 214.303 126.421 215.012 126.574L217.776 127.131C219.261 127.436 220.368 127.926 221.097 128.602C221.826 129.278 222.191 130.167 222.191 131.267C222.191 132.268 221.896 133.146 221.306 133.902C220.723 134.658 219.921 135.248 218.9 135.672C217.886 136.089 216.716 136.298 215.39 136.298C213.368 136.298 211.757 135.877 210.558 135.036C209.364 134.187 208.665 133.034 208.46 131.575L212.626 131.357C212.752 131.973 213.057 132.444 213.54 132.768C214.024 133.087 214.644 133.246 215.4 133.246C216.142 133.246 216.739 133.103 217.19 132.818C217.647 132.527 217.879 132.152 217.886 131.695C217.879 131.31 217.717 130.995 217.398 130.75C217.08 130.498 216.59 130.306 215.927 130.173L213.282 129.646C211.79 129.348 210.68 128.831 209.951 128.095C209.228 127.359 208.867 126.421 208.867 125.281C208.867 124.3 209.132 123.455 209.663 122.746C210.2 122.036 210.952 121.49 211.92 121.105C212.894 120.721 214.034 120.528 215.34 120.528C217.269 120.528 218.787 120.936 219.894 121.751C221.008 122.567 221.657 123.677 221.843 125.082Z" fill="#4D4D4D"/>
</svg>
