<svg width="267" height="144" viewBox="0 0 267 144" fill="none" xmlns="http://www.w3.org/2000/svg">
<path d="M166 38C166 47.9411 157.941 56 148 56L121 56C118.239 56 116 53.7614 116 51L116 17C116 11.4772 120.477 7 126 7L161 7C163.761 7 166 9.23858 166 12L166 38Z" fill="#E8F5E9"/>
<path d="M124.99 10C121.419 10 118.511 12.9339 118.511 16.5203C118.511 18.7892 119.676 20.7925 121.436 21.9602C119.311 22.6706 117.472 23.9985 116.124 25.7357C115.378 25.1622 114.545 24.701 113.647 24.3705C115.009 23.3595 115.899 21.7353 115.899 19.91C115.899 16.8682 113.439 14.3782 110.415 14.3782C107.392 14.3782 104.932 16.8682 104.932 19.91C104.932 21.7364 105.823 23.3613 107.186 24.3723C103.577 25.7039 101 29.1903 101 33.2933V36.1754C101 36.3951 101.088 36.6056 101.244 36.7604C101.4 36.9155 101.611 37.0019 101.83 37.0011H114.475C114.506 37.0045 114.537 37.0063 114.567 37.0059H135.413C135.444 37.0063 135.475 37.0045 135.505 37.0011H148.151C148.606 36.9993 148.974 36.6304 148.975 36.1754V33.2933C148.975 29.1903 146.402 25.7039 142.796 24.3719C144.159 23.3613 145.049 21.736 145.049 19.9096C145.049 16.8679 142.589 14.3778 139.566 14.3778C136.543 14.3778 134.082 16.8679 134.082 19.9096C134.082 21.735 134.973 23.3594 136.335 24.3701C135.435 24.7014 134.601 25.1641 133.855 25.739C132.507 24.0008 130.671 22.6711 128.546 21.9602C130.305 20.7925 131.47 18.7892 131.47 16.5203C131.47 12.9339 128.561 10 124.99 10H124.99ZM124.99 11.6544C127.661 11.6544 129.814 13.822 129.814 16.5203C129.814 19.1976 127.695 21.3442 125.053 21.3786C125.032 21.3786 125.011 21.3756 124.99 21.3756C124.969 21.3756 124.948 21.3786 124.927 21.3786C122.285 21.3446 120.167 19.1977 120.167 16.5203C120.167 13.8217 122.319 11.6544 124.99 11.6544H124.99ZM110.416 16.0324C112.535 16.0324 114.245 17.7525 114.245 19.9099C114.245 22.0528 112.557 23.7655 110.458 23.7887C110.444 23.7887 110.43 23.7873 110.416 23.7873C110.402 23.7873 110.388 23.7887 110.373 23.7887C108.274 23.7655 106.586 22.0524 106.586 19.9099C106.586 17.7526 108.296 16.0324 110.416 16.0324H110.416ZM139.565 16.0324C141.685 16.0324 143.394 17.7525 143.394 19.9099C143.394 22.0528 141.707 23.7655 139.607 23.7887C139.593 23.7887 139.58 23.7873 139.565 23.7873C139.551 23.7873 139.538 23.7887 139.523 23.7887C137.424 23.7655 135.736 22.0524 135.736 19.9099C135.736 17.7526 137.446 16.0324 139.565 16.0324H139.565ZM124.927 23.0328C124.948 23.0332 124.968 23.0358 124.99 23.0358C125.011 23.0358 125.032 23.0328 125.053 23.0328C130.35 23.0668 134.59 27.3427 134.59 32.6952L134.589 35.3511H115.391V32.6952C115.391 27.3422 119.629 23.0669 124.926 23.0328H124.927ZM110.352 25.445C110.373 25.4454 110.394 25.4479 110.415 25.4479C110.437 25.4479 110.457 25.445 110.479 25.445C112.27 25.4594 113.905 26.0772 115.207 27.1108C114.276 28.7593 113.737 30.6621 113.737 32.6957V35.3452H102.654V33.2932C102.654 28.9431 106.074 25.4789 110.352 25.4446L110.352 25.445ZM139.502 25.445C139.523 25.4454 139.544 25.4479 139.565 25.4479C139.587 25.4479 139.607 25.445 139.628 25.445C143.906 25.479 147.327 28.9435 147.327 33.2935V35.3452H136.238L136.237 32.6957C136.237 30.6632 135.7 28.7618 134.77 27.1137C136.073 26.0787 137.709 25.4594 139.502 25.445H139.502Z" fill="#103E13"/>
<path d="M49.055 79.6364H54.3647L59.9727 93.3182H60.2113L65.8192 79.6364H71.1289V100H66.9528V86.7457H66.7837L61.5138 99.9006H58.6701L53.4002 86.696H53.2312V100H49.055V79.6364ZM81.5568 100.298C79.9858 100.298 78.6335 99.9801 77.5 99.3438C76.3731 98.7008 75.5047 97.7926 74.8949 96.6193C74.285 95.4394 73.9801 94.044 73.9801 92.4332C73.9801 90.8622 74.285 89.4834 74.8949 88.2969C75.5047 87.1103 76.3632 86.1856 77.4702 85.5227C78.5838 84.8598 79.8897 84.5284 81.3878 84.5284C82.3954 84.5284 83.3333 84.6908 84.2017 85.0156C85.0767 85.3338 85.839 85.8144 86.4886 86.4574C87.1449 87.1004 87.6553 87.9091 88.0199 88.8835C88.3845 89.8513 88.5668 90.9848 88.5668 92.2841V93.4474H75.6705V90.8224H84.5795C84.5795 90.2126 84.447 89.6723 84.1818 89.2017C83.9167 88.7311 83.5488 88.3632 83.0781 88.098C82.6141 87.8262 82.0739 87.6903 81.4574 87.6903C80.8144 87.6903 80.2443 87.8395 79.7472 88.1378C79.2566 88.4295 78.8722 88.8239 78.5938 89.321C78.3153 89.8116 78.1728 90.3584 78.1662 90.9616V93.4574C78.1662 94.2131 78.3054 94.866 78.5838 95.4162C78.8688 95.9664 79.2699 96.3906 79.7869 96.6889C80.304 96.9872 80.9171 97.1364 81.6264 97.1364C82.0971 97.1364 82.5279 97.0701 82.919 96.9375C83.3101 96.8049 83.6449 96.6061 83.9233 96.3409C84.2017 96.0758 84.4138 95.7509 84.5597 95.3665L88.4773 95.625C88.2784 96.5663 87.8707 97.3883 87.2543 98.0909C86.6444 98.7869 85.8556 99.3305 84.8878 99.7216C83.9266 100.106 82.8163 100.298 81.5568 100.298ZM91.331 100V84.7273H95.3679V87.4219H95.5469C95.8651 86.527 96.3954 85.821 97.1378 85.304C97.8802 84.7869 98.7685 84.5284 99.8026 84.5284C100.85 84.5284 101.741 84.7902 102.477 85.3139C103.213 85.831 103.704 86.5336 103.949 87.4219H104.108C104.42 86.5469 104.983 85.8475 105.798 85.3239C106.62 84.7936 107.591 84.5284 108.712 84.5284C110.137 84.5284 111.294 84.9825 112.182 85.8906C113.077 86.7921 113.524 88.0715 113.524 89.7287V100H109.298V90.5639C109.298 89.7154 109.073 89.0791 108.622 88.6548C108.171 88.2306 107.608 88.0185 106.932 88.0185C106.163 88.0185 105.563 88.2637 105.132 88.7543C104.701 89.2382 104.486 89.8778 104.486 90.6733V100H100.379V90.4744C100.379 89.7254 100.164 89.1288 99.733 88.6847C99.3087 88.2405 98.7486 88.0185 98.0526 88.0185C97.5819 88.0185 97.1577 88.1378 96.7798 88.3764C96.4086 88.6084 96.1136 88.9366 95.8949 89.3608C95.6761 89.7784 95.5668 90.2689 95.5668 90.8324V100H91.331ZM116.95 100V79.6364H121.185V87.2926H121.315C121.5 86.8816 121.769 86.464 122.12 86.0398C122.478 85.6089 122.942 85.2509 123.512 84.9659C124.089 84.6742 124.805 84.5284 125.66 84.5284C126.773 84.5284 127.801 84.8201 128.742 85.4034C129.683 85.9801 130.436 86.8518 130.999 88.0185C131.563 89.1785 131.844 90.6335 131.844 92.3835C131.844 94.0871 131.569 95.5256 131.019 96.6989C130.476 97.8655 129.733 98.7505 128.792 99.3537C127.857 99.9503 126.81 100.249 125.65 100.249C124.828 100.249 124.129 100.113 123.552 99.8409C122.982 99.5691 122.514 99.2277 122.15 98.8168C121.785 98.3991 121.507 97.9782 121.315 97.554H121.126V100H116.95ZM121.096 92.3636C121.096 93.2718 121.222 94.0639 121.474 94.7401C121.726 95.4162 122.09 95.9432 122.567 96.321C123.045 96.6922 123.625 96.8778 124.308 96.8778C124.997 96.8778 125.58 96.6889 126.058 96.3111C126.535 95.9266 126.896 95.3963 127.141 94.7202C127.393 94.0374 127.519 93.2519 127.519 92.3636C127.519 91.482 127.397 90.7064 127.151 90.0369C126.906 89.3674 126.545 88.8437 126.067 88.4659C125.59 88.0881 125.004 87.8991 124.308 87.8991C123.618 87.8991 123.035 88.0814 122.558 88.446C122.087 88.8106 121.726 89.3277 121.474 89.9972C121.222 90.6667 121.096 91.4555 121.096 92.3636ZM141.631 100.298C140.06 100.298 138.708 99.9801 137.574 99.3438C136.447 98.7008 135.579 97.7926 134.969 96.6193C134.359 95.4394 134.054 94.044 134.054 92.4332C134.054 90.8622 134.359 89.4834 134.969 88.2969C135.579 87.1103 136.437 86.1856 137.544 85.5227C138.658 84.8598 139.964 84.5284 141.462 84.5284C142.47 84.5284 143.408 84.6908 144.276 85.0156C145.151 85.3338 145.913 85.8144 146.563 86.4574C147.219 87.1004 147.73 87.9091 148.094 88.8835C148.459 89.8513 148.641 90.9848 148.641 92.2841V93.4474H135.745V90.8224H144.654C144.654 90.2126 144.521 89.6723 144.256 89.2017C143.991 88.7311 143.623 88.3632 143.152 88.098C142.688 87.8262 142.148 87.6903 141.532 87.6903C140.889 87.6903 140.319 87.8395 139.821 88.1378C139.331 88.4295 138.946 88.8239 138.668 89.321C138.39 89.8116 138.247 90.3584 138.24 90.9616V93.4574C138.24 94.2131 138.38 94.866 138.658 95.4162C138.943 95.9664 139.344 96.3906 139.861 96.6889C140.378 96.9872 140.991 97.1364 141.701 97.1364C142.171 97.1364 142.602 97.0701 142.993 96.9375C143.384 96.8049 143.719 96.6061 143.998 96.3409C144.276 96.0758 144.488 95.7509 144.634 95.3665L148.551 95.625C148.353 96.5663 147.945 97.3883 147.328 98.0909C146.719 98.7869 145.93 99.3305 144.962 99.7216C144.001 100.106 142.891 100.298 141.631 100.298ZM151.405 100V84.7273H155.512V87.392H155.671C155.949 86.4441 156.417 85.7282 157.073 85.2443C157.729 84.7538 158.485 84.5085 159.34 84.5085C159.552 84.5085 159.781 84.5218 160.026 84.5483C160.271 84.5748 160.487 84.6113 160.672 84.6577V88.4162C160.473 88.3565 160.198 88.3035 159.847 88.2571C159.496 88.2107 159.174 88.1875 158.882 88.1875C158.259 88.1875 157.703 88.3234 157.212 88.5952C156.728 88.8603 156.344 89.2315 156.059 89.7088C155.78 90.1861 155.641 90.7363 155.641 91.3594V100H151.405ZM175.57 89.0824L171.692 89.321C171.625 88.9896 171.483 88.6913 171.264 88.4261C171.045 88.1544 170.757 87.9389 170.399 87.7798C170.048 87.6141 169.627 87.5312 169.136 87.5312C168.48 87.5312 167.927 87.6705 167.476 87.9489C167.025 88.2206 166.8 88.5852 166.8 89.0426C166.8 89.4072 166.946 89.7154 167.237 89.9673C167.529 90.2192 168.029 90.4214 168.739 90.5739L171.503 91.1307C172.988 91.4356 174.095 91.9261 174.824 92.6023C175.553 93.2784 175.918 94.1667 175.918 95.267C175.918 96.268 175.623 97.1463 175.033 97.902C174.449 98.6577 173.647 99.2476 172.626 99.6719C171.612 100.089 170.442 100.298 169.116 100.298C167.095 100.298 165.484 99.8774 164.284 99.0355C163.091 98.187 162.392 97.0336 162.186 95.5753L166.352 95.3565C166.478 95.973 166.783 96.4437 167.267 96.7685C167.751 97.0866 168.371 97.2457 169.126 97.2457C169.869 97.2457 170.465 97.1032 170.916 96.8182C171.374 96.5265 171.606 96.152 171.612 95.6946C171.606 95.3101 171.443 94.9953 171.125 94.75C170.807 94.4981 170.316 94.3059 169.653 94.1733L167.009 93.6463C165.517 93.348 164.407 92.831 163.678 92.0952C162.955 91.3594 162.594 90.4214 162.594 89.2812C162.594 88.3002 162.859 87.455 163.389 86.7457C163.926 86.0365 164.679 85.4896 165.646 85.1051C166.621 84.7206 167.761 84.5284 169.067 84.5284C170.996 84.5284 172.514 84.9361 173.621 85.7514C174.734 86.5668 175.384 87.6771 175.57 89.0824ZM182.821 91.1705V100H178.585V79.6364H182.701V87.4219H182.88C183.225 86.5204 183.782 85.8144 184.551 85.304C185.32 84.7869 186.284 84.5284 187.444 84.5284C188.505 84.5284 189.43 84.7604 190.218 85.2244C191.014 85.6818 191.63 86.3414 192.068 87.2031C192.512 88.0582 192.731 89.0824 192.724 90.2756V100H188.488V91.0312C188.495 90.09 188.256 89.3575 187.772 88.8338C187.295 88.3101 186.626 88.0483 185.764 88.0483C185.187 88.0483 184.677 88.1709 184.233 88.4162C183.795 88.6615 183.45 89.0194 183.199 89.4901C182.953 89.9541 182.827 90.5142 182.821 91.1705ZM196.058 100V84.7273H200.293V100H196.058ZM198.185 82.7585C197.556 82.7585 197.015 82.5497 196.565 82.1321C196.121 81.7079 195.898 81.2008 195.898 80.6108C195.898 80.0275 196.121 79.527 196.565 79.1094C197.015 78.6851 197.556 78.473 198.185 78.473C198.815 78.473 199.352 78.6851 199.796 79.1094C200.247 79.527 200.472 80.0275 200.472 80.6108C200.472 81.2008 200.247 81.7079 199.796 82.1321C199.352 82.5497 198.815 82.7585 198.185 82.7585ZM203.686 105.727V84.7273H207.863V87.2926H208.051C208.237 86.8816 208.506 86.464 208.857 86.0398C209.215 85.6089 209.679 85.2509 210.249 84.9659C210.826 84.6742 211.542 84.5284 212.397 84.5284C213.51 84.5284 214.538 84.8201 215.479 85.4034C216.42 85.9801 217.173 86.8518 217.736 88.0185C218.3 89.1785 218.581 90.6335 218.581 92.3835C218.581 94.0871 218.306 95.5256 217.756 96.6989C217.212 97.8655 216.47 98.7505 215.529 99.3537C214.594 99.9503 213.547 100.249 212.387 100.249C211.565 100.249 210.865 100.113 210.289 99.8409C209.719 99.5691 209.251 99.2277 208.887 98.8168C208.522 98.3991 208.244 97.9782 208.051 97.554H207.922V105.727H203.686ZM207.833 92.3636C207.833 93.2718 207.959 94.0639 208.211 94.7401C208.462 95.4162 208.827 95.9432 209.304 96.321C209.782 96.6922 210.362 96.8778 211.044 96.8778C211.734 96.8778 212.317 96.6889 212.794 96.3111C213.272 95.9266 213.633 95.3963 213.878 94.7202C214.13 94.0374 214.256 93.2519 214.256 92.3636C214.256 91.482 214.133 90.7064 213.888 90.0369C213.643 89.3674 213.282 88.8437 212.804 88.4659C212.327 88.0881 211.74 87.8991 211.044 87.8991C210.355 87.8991 209.772 88.0814 209.294 88.446C208.824 88.8106 208.462 89.3277 208.211 89.9972C207.959 90.6667 207.833 91.4555 207.833 92.3636ZM57.7603 125.818C57.7603 128.039 57.3394 129.928 56.4975 131.486C55.6623 133.044 54.5221 134.233 53.0771 135.055C51.6386 135.871 50.0212 136.278 48.2248 136.278C46.4151 136.278 44.7911 135.867 43.3526 135.045C41.9142 134.223 40.7773 133.034 39.9421 131.476C39.1069 129.918 38.6893 128.032 38.6893 125.818C38.6893 123.598 39.1069 121.708 39.9421 120.151C40.7773 118.593 41.9142 117.406 43.3526 116.591C44.7911 115.769 46.4151 115.358 48.2248 115.358C50.0212 115.358 51.6386 115.769 53.0771 116.591C54.5221 117.406 55.6623 118.593 56.4975 120.151C57.3394 121.708 57.7603 123.598 57.7603 125.818ZM53.3952 125.818C53.3952 124.38 53.1798 123.167 52.7489 122.179C52.3247 121.191 51.7248 120.442 50.9492 119.932C50.1737 119.421 49.2655 119.166 48.2248 119.166C47.1841 119.166 46.2759 119.421 45.5004 119.932C44.7248 120.442 44.1216 121.191 43.6907 122.179C43.2665 123.167 43.0543 124.38 43.0543 125.818C43.0543 127.257 43.2665 128.47 43.6907 129.457C44.1216 130.445 44.7248 131.194 45.5004 131.705C46.2759 132.215 47.1841 132.47 48.2248 132.47C49.2655 132.47 50.1737 132.215 50.9492 131.705C51.7248 131.194 52.3247 130.445 52.7489 129.457C53.1798 128.47 53.3952 127.257 53.3952 125.818ZM60.87 136V120.727H64.9766V123.392H65.1357C65.4141 122.444 65.8814 121.728 66.5376 121.244C67.1939 120.754 67.9496 120.509 68.8047 120.509C69.0168 120.509 69.2455 120.522 69.4908 120.548C69.736 120.575 69.9515 120.611 70.1371 120.658V124.416C69.9382 124.357 69.6631 124.304 69.3118 124.257C68.9605 124.211 68.639 124.188 68.3473 124.188C67.7242 124.188 67.1674 124.323 66.6768 124.595C66.1929 124.86 65.8085 125.232 65.5234 125.709C65.245 126.186 65.1058 126.736 65.1058 127.359V136H60.87ZM78.4968 142.045C77.1246 142.045 75.948 141.857 74.967 141.479C73.9925 141.107 73.217 140.6 72.6403 139.957C72.0636 139.314 71.689 138.592 71.5167 137.79L75.4343 137.263C75.5536 137.568 75.7425 137.853 76.0011 138.118C76.2596 138.383 76.601 138.595 77.0252 138.754C77.4561 138.92 77.9798 139.003 78.5962 139.003C79.5176 139.003 80.2766 138.777 80.8732 138.327C81.4764 137.883 81.7781 137.137 81.7781 136.089V133.295H81.5991C81.4135 133.72 81.1351 134.121 80.7638 134.499C80.3926 134.876 79.9154 135.185 79.332 135.423C78.7487 135.662 78.0527 135.781 77.244 135.781C76.0972 135.781 75.0531 135.516 74.1119 134.986C73.1772 134.449 72.4315 133.63 71.8746 132.53C71.3245 131.423 71.0494 130.024 71.0494 128.334C71.0494 126.604 71.3311 125.159 71.8945 123.999C72.458 122.839 73.207 121.97 74.1417 121.393C75.083 120.817 76.1138 120.528 77.234 120.528C78.0891 120.528 78.805 120.674 79.3817 120.966C79.9585 121.251 80.4225 121.609 80.7738 122.04C81.1317 122.464 81.4068 122.882 81.5991 123.293H81.7582V120.727H85.9641V136.149C85.9641 137.448 85.646 138.536 85.0096 139.411C84.3732 140.286 83.4916 140.942 82.3647 141.379C81.2444 141.823 79.9551 142.045 78.4968 142.045ZM78.5863 132.599C79.2691 132.599 79.8458 132.43 80.3164 132.092C80.7937 131.748 81.1583 131.257 81.4102 130.621C81.6687 129.978 81.7979 129.209 81.7979 128.314C81.7979 127.419 81.672 126.643 81.4201 125.987C81.1682 125.324 80.8036 124.811 80.3263 124.446C79.8491 124.081 79.2691 123.899 78.5863 123.899C77.8903 123.899 77.3036 124.088 76.8263 124.466C76.3491 124.837 75.9878 125.354 75.7425 126.017C75.4973 126.68 75.3746 127.446 75.3746 128.314C75.3746 129.196 75.4973 129.958 75.7425 130.601C75.9944 131.237 76.3557 131.731 76.8263 132.082C77.3036 132.427 77.8903 132.599 78.5863 132.599ZM93.69 136.288C92.7156 136.288 91.8472 136.119 91.0849 135.781C90.3226 135.437 89.7193 134.929 89.2752 134.26C88.8377 133.584 88.619 132.742 88.619 131.734C88.619 130.886 88.7747 130.173 89.0863 129.597C89.3978 129.02 89.8221 128.556 90.359 128.205C90.896 127.853 91.5058 127.588 92.1886 127.409C92.878 127.23 93.6005 127.104 94.3562 127.031C95.2444 126.938 95.9603 126.852 96.5039 126.773C97.0475 126.687 97.4419 126.561 97.6871 126.395C97.9324 126.229 98.055 125.984 98.055 125.659V125.599C98.055 124.97 97.8562 124.482 97.4585 124.138C97.0674 123.793 96.5105 123.621 95.788 123.621C95.0257 123.621 94.4192 123.79 93.9684 124.128C93.5176 124.459 93.2193 124.877 93.0735 125.381L89.1559 125.062C89.3548 124.134 89.7459 123.332 90.3292 122.656C90.9125 121.973 91.6649 121.45 92.5863 121.085C93.5143 120.714 94.5882 120.528 95.8079 120.528C96.6564 120.528 97.4684 120.628 98.244 120.827C99.0262 121.026 99.7189 121.334 100.322 121.751C100.932 122.169 101.413 122.706 101.764 123.362C102.115 124.012 102.291 124.791 102.291 125.699V136H98.2738V133.882H98.1545C97.9092 134.359 97.5811 134.78 97.1701 135.145C96.7591 135.503 96.2653 135.785 95.6886 135.99C95.1119 136.189 94.4457 136.288 93.69 136.288ZM94.9031 133.365C95.5262 133.365 96.0763 133.242 96.5536 132.997C97.0309 132.745 97.4054 132.407 97.6772 131.983C97.949 131.559 98.0849 131.078 98.0849 130.541V128.92C97.9523 129.007 97.77 129.086 97.538 129.159C97.3126 129.225 97.0574 129.288 96.7724 129.348C96.4873 129.401 96.2023 129.451 95.9173 129.497C95.6322 129.537 95.3737 129.573 95.1417 129.607C94.6445 129.679 94.2103 129.795 93.8391 129.955C93.4679 130.114 93.1796 130.329 92.9741 130.601C92.7686 130.866 92.6658 131.197 92.6658 131.595C92.6658 132.172 92.8746 132.613 93.2923 132.918C93.7165 133.216 94.2534 133.365 94.9031 133.365ZM109.813 127.17V136H105.577V120.727H109.614V123.422H109.793C110.131 122.534 110.698 121.831 111.493 121.314C112.289 120.79 113.253 120.528 114.387 120.528C115.447 120.528 116.372 120.76 117.161 121.224C117.95 121.688 118.563 122.351 119 123.213C119.438 124.068 119.657 125.089 119.657 126.276V136H115.421V127.031C115.427 126.097 115.189 125.367 114.705 124.844C114.221 124.313 113.555 124.048 112.706 124.048C112.136 124.048 111.632 124.171 111.195 124.416C110.764 124.661 110.426 125.019 110.181 125.49C109.942 125.954 109.819 126.514 109.813 127.17ZM122.995 136V120.727H127.231V136H122.995ZM125.123 118.759C124.493 118.759 123.953 118.55 123.502 118.132C123.058 117.708 122.836 117.201 122.836 116.611C122.836 116.027 123.058 115.527 123.502 115.109C123.953 114.685 124.493 114.473 125.123 114.473C125.753 114.473 126.29 114.685 126.734 115.109C127.184 115.527 127.41 116.027 127.41 116.611C127.41 117.201 127.184 117.708 126.734 118.132C126.29 118.55 125.753 118.759 125.123 118.759ZM143.331 125.082L139.453 125.321C139.387 124.99 139.245 124.691 139.026 124.426C138.807 124.154 138.519 123.939 138.161 123.78C137.81 123.614 137.389 123.531 136.898 123.531C136.242 123.531 135.688 123.67 135.238 123.949C134.787 124.221 134.561 124.585 134.561 125.043C134.561 125.407 134.707 125.715 134.999 125.967C135.291 126.219 135.791 126.421 136.5 126.574L139.265 127.131C140.749 127.436 141.856 127.926 142.586 128.602C143.315 129.278 143.679 130.167 143.679 131.267C143.679 132.268 143.384 133.146 142.794 133.902C142.211 134.658 141.409 135.248 140.388 135.672C139.374 136.089 138.204 136.298 136.878 136.298C134.856 136.298 133.246 135.877 132.046 135.036C130.853 134.187 130.153 133.034 129.948 131.575L134.114 131.357C134.24 131.973 134.545 132.444 135.029 132.768C135.513 133.087 136.132 133.246 136.888 133.246C137.631 133.246 138.227 133.103 138.678 132.818C139.135 132.527 139.367 132.152 139.374 131.695C139.367 131.31 139.205 130.995 138.887 130.75C138.569 130.498 138.078 130.306 137.415 130.173L134.77 129.646C133.279 129.348 132.168 128.831 131.439 128.095C130.717 127.359 130.355 126.421 130.355 125.281C130.355 124.3 130.621 123.455 131.151 122.746C131.688 122.036 132.44 121.49 133.408 121.105C134.382 120.721 135.523 120.528 136.828 120.528C138.757 120.528 140.275 120.936 141.382 121.751C142.496 122.567 143.146 123.677 143.331 125.082ZM150.702 136.288C149.727 136.288 148.859 136.119 148.097 135.781C147.334 135.437 146.731 134.929 146.287 134.26C145.849 133.584 145.631 132.742 145.631 131.734C145.631 130.886 145.786 130.173 146.098 129.597C146.41 129.02 146.834 128.556 147.371 128.205C147.908 127.853 148.518 127.588 149.2 127.409C149.89 127.23 150.612 127.104 151.368 127.031C152.256 126.938 152.972 126.852 153.516 126.773C154.059 126.687 154.454 126.561 154.699 126.395C154.944 126.229 155.067 125.984 155.067 125.659V125.599C155.067 124.97 154.868 124.482 154.47 124.138C154.079 123.793 153.522 123.621 152.8 123.621C152.037 123.621 151.431 123.79 150.98 124.128C150.529 124.459 150.231 124.877 150.085 125.381L146.168 125.062C146.366 124.134 146.758 123.332 147.341 122.656C147.924 121.973 148.677 121.45 149.598 121.085C150.526 120.714 151.6 120.528 152.82 120.528C153.668 120.528 154.48 120.628 155.256 120.827C156.038 121.026 156.731 121.334 157.334 121.751C157.944 122.169 158.424 122.706 158.776 123.362C159.127 124.012 159.303 124.791 159.303 125.699V136H155.286V133.882H155.166C154.921 134.359 154.593 134.78 154.182 135.145C153.771 135.503 153.277 135.785 152.7 135.99C152.124 136.189 151.457 136.288 150.702 136.288ZM151.915 133.365C152.538 133.365 153.088 133.242 153.565 132.997C154.043 132.745 154.417 132.407 154.689 131.983C154.961 131.559 155.097 131.078 155.097 130.541V128.92C154.964 129.007 154.782 129.086 154.55 129.159C154.324 129.225 154.069 129.288 153.784 129.348C153.499 129.401 153.214 129.451 152.929 129.497C152.644 129.537 152.385 129.573 152.153 129.607C151.656 129.679 151.222 129.795 150.851 129.955C150.48 130.114 150.191 130.329 149.986 130.601C149.78 130.866 149.678 131.197 149.678 131.595C149.678 132.172 149.886 132.613 150.304 132.918C150.728 133.216 151.265 133.365 151.915 133.365ZM170.712 120.727V123.909H161.515V120.727H170.712ZM163.603 117.068H167.839V131.307C167.839 131.698 167.898 132.003 168.018 132.222C168.137 132.434 168.303 132.583 168.515 132.669C168.734 132.755 168.986 132.798 169.271 132.798C169.469 132.798 169.668 132.782 169.867 132.749C170.066 132.709 170.219 132.679 170.325 132.659L170.991 135.811C170.779 135.877 170.48 135.954 170.096 136.04C169.711 136.133 169.244 136.189 168.694 136.209C167.673 136.249 166.778 136.113 166.009 135.801C165.247 135.49 164.654 135.006 164.229 134.349C163.805 133.693 163.596 132.865 163.603 131.864V117.068ZM173.472 136V120.727H177.707V136H173.472ZM175.599 118.759C174.97 118.759 174.429 118.55 173.979 118.132C173.535 117.708 173.312 117.201 173.312 116.611C173.312 116.027 173.535 115.527 173.979 115.109C174.429 114.685 174.97 114.473 175.599 114.473C176.229 114.473 176.766 114.685 177.21 115.109C177.661 115.527 177.886 116.027 177.886 116.611C177.886 117.201 177.661 117.708 177.21 118.132C176.766 118.55 176.229 118.759 175.599 118.759ZM188.001 136.298C186.457 136.298 185.121 135.97 183.994 135.314C182.874 134.651 182.009 133.73 181.399 132.55C180.789 131.363 180.484 129.988 180.484 128.423C180.484 126.846 180.789 125.467 181.399 124.287C182.009 123.1 182.874 122.179 183.994 121.523C185.121 120.86 186.457 120.528 188.001 120.528C189.546 120.528 190.878 120.86 191.998 121.523C193.125 122.179 193.993 123.1 194.603 124.287C195.213 125.467 195.518 126.846 195.518 128.423C195.518 129.988 195.213 131.363 194.603 132.55C193.993 133.73 193.125 134.651 191.998 135.314C190.878 135.97 189.546 136.298 188.001 136.298ZM188.021 133.017C188.724 133.017 189.31 132.818 189.781 132.42C190.252 132.016 190.606 131.466 190.845 130.77C191.09 130.074 191.213 129.282 191.213 128.393C191.213 127.505 191.09 126.713 190.845 126.017C190.606 125.321 190.252 124.771 189.781 124.366C189.31 123.962 188.724 123.76 188.021 123.76C187.312 123.76 186.715 123.962 186.231 124.366C185.754 124.771 185.393 125.321 185.147 126.017C184.909 126.713 184.789 127.505 184.789 128.393C184.789 129.282 184.909 130.074 185.147 130.77C185.393 131.466 185.754 132.016 186.231 132.42C186.715 132.818 187.312 133.017 188.021 133.017ZM202.508 127.17V136H198.272V120.727H202.309V123.422H202.488C202.826 122.534 203.393 121.831 204.189 121.314C204.984 120.79 205.949 120.528 207.082 120.528C208.143 120.528 209.067 120.76 209.856 121.224C210.645 121.688 211.258 122.351 211.696 123.213C212.133 124.068 212.352 125.089 212.352 126.276V136H208.116V127.031C208.123 126.097 207.884 125.367 207.4 124.844C206.916 124.313 206.25 124.048 205.402 124.048C204.832 124.048 204.328 124.171 203.89 124.416C203.459 124.661 203.121 125.019 202.876 125.49C202.637 125.954 202.515 126.514 202.508 127.17ZM228.398 125.082L224.52 125.321C224.454 124.99 224.311 124.691 224.092 124.426C223.874 124.154 223.585 123.939 223.227 123.78C222.876 123.614 222.455 123.531 221.964 123.531C221.308 123.531 220.755 123.67 220.304 123.949C219.853 124.221 219.628 124.585 219.628 125.043C219.628 125.407 219.774 125.715 220.065 125.967C220.357 126.219 220.857 126.421 221.567 126.574L224.331 127.131C225.816 127.436 226.923 127.926 227.652 128.602C228.381 129.278 228.746 130.167 228.746 131.267C228.746 132.268 228.451 133.146 227.861 133.902C227.277 134.658 226.475 135.248 225.455 135.672C224.44 136.089 223.27 136.298 221.945 136.298C219.923 136.298 218.312 135.877 217.112 135.036C215.919 134.187 215.22 133.034 215.014 131.575L219.18 131.357C219.306 131.973 219.611 132.444 220.095 132.768C220.579 133.087 221.199 133.246 221.955 133.246C222.697 133.246 223.294 133.103 223.744 132.818C224.202 132.527 224.434 132.152 224.44 131.695C224.434 131.31 224.271 130.995 223.953 130.75C223.635 130.498 223.144 130.306 222.482 130.173L219.837 129.646C218.345 129.348 217.235 128.831 216.506 128.095C215.783 127.359 215.422 126.421 215.422 125.281C215.422 124.3 215.687 123.455 216.217 122.746C216.754 122.036 217.507 121.49 218.474 121.105C219.449 120.721 220.589 120.528 221.895 120.528C223.824 120.528 225.342 120.936 226.449 121.751C227.563 122.567 228.212 123.677 228.398 125.082Z" fill="#4D4D4D"/>
</svg>
